<?xml version="1.0" encoding="UTF-8"?>
<!DOCTYPE svg PUBLIC "-//W3C//DTD SVG 1.1//EN" "http://www.w3.org/Graphics/SVG/1.1/DTD/svg11.dtd">
<svg xmlns="http://www.w3.org/2000/svg" version="1.1" width="720px" height="371px" style="shape-rendering:geometricPrecision; text-rendering:geometricPrecision; image-rendering:optimizeQuality; fill-rule:evenodd; clip-rule:evenodd" xmlns:xlink="http://www.w3.org/1999/xlink">
<g><path style="opacity:0.601" fill="#fefffe" d="M 36.5,-0.5 C 57.5,-0.5 78.5,-0.5 99.5,-0.5C 111.498,0.645853 123.498,2.64585 135.5,5.5C 142.758,2.85422 150.092,0.85422 157.5,-0.5C 257.5,-0.5 357.5,-0.5 457.5,-0.5C 509.083,2.41756 535.083,29.7509 535.5,81.5C 536.46,103.017 530.627,122.351 518,139.5C 511.48,146.846 503.647,152.346 494.5,156C 503.016,157.068 511.516,158.235 520,159.5C 532.422,157.625 544.922,156.625 557.5,156.5C 569.165,157.222 580.832,157.389 592.5,157C 614.845,152.107 637.178,151.774 659.5,156C 700.342,167.843 719.842,195.01 718,237.5C 716.904,242.714 715.738,247.88 714.5,253C 716.109,259.964 717.776,266.797 719.5,273.5C 719.5,284.833 719.5,296.167 719.5,307.5C 715.327,333.311 701.327,351.811 677.5,363C 666.992,366.796 656.325,369.296 645.5,370.5C 636.167,370.5 626.833,370.5 617.5,370.5C 607.679,368.555 597.679,366.889 587.5,365.5C 565.399,367.339 543.399,366.672 521.5,363.5C 515.863,364.492 510.196,365.325 504.5,366C 479.99,365.91 455.49,366.076 431,366.5C 418.26,367.188 405.76,365.855 393.5,362.5C 381.58,365.872 369.414,367.205 357,366.5C 314.811,366.441 272.644,366.274 230.5,366C 224.524,365.548 218.691,364.381 213,362.5C 201.24,365.846 189.24,367.18 177,366.5C 168.132,366.522 159.299,366.022 150.5,365C 145.542,362.771 140.376,361.271 135,360.5C 123.043,363.637 110.877,365.47 98.5,366C 78.1667,366.667 57.8333,366.667 37.5,366C 14.5397,363.207 1.87302,350.374 -0.5,327.5C -0.5,283.833 -0.5,240.167 -0.5,196.5C 0.31125,192.165 0.977916,187.665 1.5,183C 0.991588,178.665 0.324921,174.499 -0.5,170.5C -0.5,126.5 -0.5,82.5 -0.5,38.5C 1.95045,16.051 14.2838,3.05104 36.5,-0.5 Z"/></g>
</svg>
